<svg xmlns="http://www.w3.org/2000/svg" viewBox="0 0 548.99 305.99"><defs><style>.cls-1{fill:#f0ece6;}</style></defs><g id="Layer_2" data-name="Layer 2"><g id="Layer_1-2" data-name="Layer 1"><path class="cls-1" d="M238.79,0a17.15,17.15,0,0,1,4.05.83c1.1.35,2.58.83,3.16,1.92,1.66,3.16-1.51,5.5-3.89,7C231.34,16.36,220.58,23,209.5,29.05a483,483,0,0,0-76.09,52.18C109.47,101,86.07,121.45,64.7,144.08l-.09.1A13.36,13.36,0,0,0,65,162.56c35.35,36.34,72.7,70.4,115.41,98,14,9.08,29.22,16.3,43.71,24.66a178.14,178.14,0,0,1,17.77,12,12.22,12.22,0,0,1,3,4.07,2.08,2.08,0,0,1-1.18,3,12.57,12.57,0,0,1-5.33,1c-19.36-2.55-38.47-6.44-56.8-13.33-35.26-13.24-67.15-32.44-96.29-56.1a695.45,695.45,0,0,1-81.09-77.6c-5-5.66-5.47-6.66-1.47-11.07C23.15,124.53,44.85,103,68.52,83.79c33.5-27.24,68.65-52,109-68.22q7.42-3,15-5.47T208,5.63q7.81-2,15.76-3.45c2.41-.45,4.83-.87,7.26-1.23A46.18,46.18,0,0,1,238,0C238.28,0,238.54,0,238.79,0Z"/><path class="cls-1" d="M396.18,153.74c0,7.35-56.95-1.2-89.69,31.54S282.29,275,274.94,275s1.2-57-31.55-89.7-89.69-24.19-89.69-31.54,57,1.19,89.69-31.55,24.2-89.69,31.55-89.69-1.19,57,31.55,89.69S396.18,146.39,396.18,153.74Z"/><path class="cls-1" d="M310.2.72a17.47,17.47,0,0,0-4.05.84c-1.1.35-2.59.83-3.16,1.91-1.66,3.16,1.51,5.51,3.89,7,10.76,6.61,21.53,13.25,32.6,19.31a482,482,0,0,1,76.09,52.17c23.94,19.82,47.34,40.23,68.71,62.86l.09.09a13.36,13.36,0,0,1-.34,18.38c-35.35,36.34-72.71,70.4-115.41,98-14,9.07-29.22,16.29-43.71,24.65a178.37,178.37,0,0,0-17.78,12,12.29,12.29,0,0,0-3,4.06,2.08,2.08,0,0,0,1.17,3,12.48,12.48,0,0,0,5.34,1c19.36-2.55,38.46-6.44,56.8-13.33,35.25-13.24,67.15-32.44,96.28-56.1a695.54,695.54,0,0,0,81.1-77.6c5-5.66,5.47-6.66,1.47-11.07-20.47-22.61-42.17-44.12-65.83-63.36-33.51-27.23-68.65-52-109-68.22q-7.43-3-15-5.47T341,6.32q-7.82-2-15.75-3.45C322.82,2.43,320.4,2,318,1.64a47.43,47.43,0,0,0-7-.95Z"/></g></g></svg>